<svg width="120" height="120" viewBox="0 0 120 120" fill="none" xmlns="http://www.w3.org/2000/svg">
<ellipse cx="59.9069" cy="60" rx="59.9069" ry="60" fill="#010101"/>
<path d="M46.2579 88L42.5139 75.76H23.7939L20.0499 88H8.31388L26.4579 36.376H39.7779L57.9939 88H46.2579ZM36.1779 54.664C35.9379 53.848 35.6259 52.816 35.2419 51.568C34.8579 50.32 34.4739 49.048 34.0899 47.752C33.7059 46.456 33.3939 45.328 33.1539 44.368C32.9139 45.328 32.5779 46.528 32.1459 47.968C31.7619 49.36 31.3779 50.704 30.9939 52C30.6579 53.248 30.3939 54.136 30.2019 54.664L26.5299 66.616H39.9219L36.1779 54.664ZM107.331 62.224C107.331 67.984 106.299 72.976 104.235 77.2C102.171 81.376 98.9792 84.448 94.6592 86.416L107.043 100.24H93.0752L83.6432 88.72H82.8512C77.2832 88.72 72.6752 87.616 69.0272 85.408C65.4272 83.2 62.7392 80.104 60.9632 76.12C59.2352 72.136 58.3712 67.48 58.3712 62.152C58.3712 56.824 59.2352 52.192 60.9632 48.256C62.7392 44.32 65.4272 41.272 69.0272 39.112C72.6752 36.904 77.3072 35.8 82.9232 35.8C88.4912 35.8 93.0752 36.904 96.6752 39.112C100.275 41.272 102.939 44.344 104.667 48.328C106.443 52.264 107.331 56.896 107.331 62.224ZM69.8192 62.224C69.8192 67.6 70.8512 71.848 72.9152 74.968C74.9792 78.04 78.2912 79.576 82.8512 79.576C87.5072 79.576 90.8432 78.04 92.8592 74.968C94.8752 71.848 95.8832 67.6 95.8832 62.224C95.8832 56.8 94.8752 52.552 92.8592 49.48C90.8432 46.408 87.5312 44.872 82.9232 44.872C78.3152 44.872 74.9792 46.408 72.9152 49.48C70.8512 52.552 69.8192 56.8 69.8192 62.224Z" fill="#FFDB17"/>
</svg>
